<svg id="Capa_1" enable-background="new 0 0 497 497" height="512" viewBox="0 0 497 497" width="512" xmlns="http://www.w3.org/2000/svg"><g><path d="m420.653 2.115c-42.843-9.901-85.6 16.803-95.5 59.646l-38.797 167.88 155.146 35.854 38.797-167.88c9.901-42.842-16.803-85.599-59.646-95.5z" fill="#ffca8a"/><path d="m337.659 169.24c0-71.417 44.235-132.5 106.799-157.353-7.169-4.412-15.151-7.772-23.806-9.772-42.842-9.901-85.599 16.803-95.5 59.646l-38.797 167.88 69.53 16.068c-11.652-22.969-18.226-48.95-18.226-76.469z" fill="#ffbe73"/><path d="m430.938 63.207-46.332-10.707c-10.726-2.479-21.43 4.207-23.909 14.932-2.479 10.726 4.207 21.43 14.932 23.909l46.331 10.707c10.726 2.479 21.43-4.207 23.909-14.932 2.48-10.726-4.206-21.43-14.931-23.909z" fill="#ffdebb"/><path d="m413.965 136.649-46.331-10.707c-10.726-2.479-21.43 4.207-23.909 14.932-2.479 10.726 4.207 21.43 14.932 23.909l46.331 10.707c10.726 2.479 21.43-4.207 23.909-14.932 2.479-10.726-4.206-21.43-14.932-23.909z" fill="#ffdebb"/><path d="m141.365 153.364-.011-.063c-4.622-27.084 13.97-52.659 41.159-56.617l.076-.011c12.168-24.668 42.28-34.45 66.623-21.644l.012.006.012-.006c24.342-12.807 54.454-3.025 66.623 21.643l.076.011c27.189 3.958 45.782 29.533 41.159 56.617l-.011.062.064.062c19.649 19.187 19.649 50.788 0 69.974l-.064.062-.398 49.461h-215.305z" fill="#80dfb5"/><g><path d="m137.759 175.93-29.323-19.108-.072.111c.048-.076 4.778-7.678 6.313-17.718 1.796-11.745-1.503-21.595-10.083-30.111-6.86-6.809-6.902-17.889-.093-24.749 6.809-6.859 17.89-6.9 24.749-.093 32.779 32.534 19.899 74.188 8.509 91.668z" fill="#edb798"/></g><path d="m145.399 108.261c-1.053.385-2.099.788-3.135 1.212-7.573 3.099-15.76 4.234-23.89 3.312-3.616-.41-7.263-.587-10.923-.556 6.437 7.783 8.806 16.649 7.226 26.985-1.535 10.041-6.265 17.642-6.313 17.718l.072-.111 29.323 19.108c8.715-13.374 18.302-40.901 7.64-67.668z" fill="#e8a882"/><path d="m200.795 161.183c0-34.792 12.688-66.619 33.682-91.116-20.677-3.447-42.093 6.753-51.887 26.607l-.076.011c-27.189 3.958-45.781 29.533-41.159 56.617l.011.063.015 119.559h115.001c-33.769-25.581-55.587-66.111-55.587-111.741z" fill="#36d39a"/><path d="m166.947 246.669c33.467 0 60.597-27.13 60.597-60.597s-27.13-60.597-60.597-60.597c-12.856 0-24.769 4.015-34.576 10.844-9.807-6.829-21.72-10.844-34.576-10.844-33.467 0-60.597 27.13-60.597 60.597s27.13 60.597 60.597 60.597z" fill="#ff748f"/><path d="m99.339 175.682c0-17.835 5.689-34.332 15.325-47.813-5.355-1.553-11.013-2.395-16.87-2.395-33.467 0-60.597 27.13-60.597 60.597s27.13 60.597 60.597 60.597h42.172c-24.306-14.314-40.627-40.737-40.627-70.986z" fill="#fd5f7e"/><path d="m298.2 224.947-31.546-22.876c-10.829-7.853-25.479-7.853-36.308 0l-31.546 22.876-31.546-22.876c-10.829-7.852-25.479-7.852-36.308 0l-31.546 22.876-31.546-22.876c-10.829-7.853-25.479-7.853-36.308 0l-12.551 9.101c-11.932 8.653-18.995 22.5-18.995 37.239v195.909c0 29.065 23.562 52.628 52.628 52.628h298.2z" fill="#edb798"/><path d="m478.005 211.173-12.551-9.101c-10.829-7.853-25.479-7.853-36.308 0l-31.546 22.875-31.546-22.876c-10.829-7.853-25.479-7.853-36.308 0l-31.546 22.876v219.373c0 29.065 23.562 52.628 52.628 52.628h93.545c29.065 0 52.628-23.562 52.628-52.628v-195.909c-.001-14.739-7.064-28.586-18.996-37.238z" fill="#e8a882"/><path d="m37.197 292.165c0-33.832 7.19-65.98 20.106-95.019-8.71-2.208-18.17-.576-25.757 4.926l-12.551 9.102c-11.932 8.651-18.995 22.498-18.995 37.237v195.909c0 29.065 23.562 52.627 52.627 52.627h90.028c-66.04-39.924-105.458-116.659-105.458-204.782z" fill="#e8a882"/><g><g><g><ellipse cx="62.86" cy="353.834" fill="#ffefe0" rx="31.821" ry="25.341"/></g><g><ellipse cx="235.34" cy="353.834" fill="#ffefe0" rx="31.821" ry="25.341"/></g></g></g><g fill="#423e4f"><path d="m81.405 308.932c-4.142 0-7.5 3.358-7.5 7.5v13.008c0 4.142 3.358 7.5 7.5 7.5s7.5-3.358 7.5-7.5v-13.008c0-4.142-3.358-7.5-7.5-7.5z"/><path d="m216.795 308.932c-4.142 0-7.5 3.358-7.5 7.5v13.008c0 4.142 3.358 7.5 7.5 7.5s7.5-3.358 7.5-7.5v-13.008c0-4.142-3.358-7.5-7.5-7.5z"/><path d="m171.875 323.399c-3.123-2.721-7.861-2.396-10.582.727-3.079 3.532-7.523 5.559-12.194 5.559s-9.115-2.026-12.193-5.559c-2.721-3.123-7.459-3.448-10.582-.727s-3.448 7.459-.727 10.582c5.928 6.802 14.494 10.704 23.501 10.704s17.573-3.901 23.501-10.703c2.724-3.123 2.399-7.861-.724-10.583z"/></g></g></svg>